<?xml version="1.0" standalone="no"?>
<!DOCTYPE svg PUBLIC "-//W3C//DTD SVG 20010904//EN"
 "http://www.w3.org/TR/2001/REC-SVG-20010904/DTD/svg10.dtd">
<svg version="1.0" xmlns="http://www.w3.org/2000/svg"
 width="1024.000000pt" height="1024.000000pt" viewBox="0 0 1024.000000 1024.000000"
 preserveAspectRatio="xMidYMid meet">

<g transform="translate(0.000000,1024.000000) scale(0.100000,-0.100000)"
fill="#000000" stroke="none">
<path d="M4915 8364 c-405 -31 -762 -133 -1157 -330 -286 -143 -558 -350 -766
-584 -366 -411 -621 -874 -742 -1348 -30 -119 -68 -323 -80 -427 -13 -118 -13
-440 1 -563 18 -165 76 -430 129 -592 66 -202 216 -507 338 -690 238 -355 466
-593 802 -834 301 -216 685 -383 1048 -456 265 -53 378 -64 622 -64 233 0 390
16 635 65 285 57 618 184 872 335 107 63 330 223 433 310 319 269 642 720 813
1134 77 188 159 487 192 700 22 141 30 493 16 647 -52 560 -311 1165 -712
1663 -78 96 -278 297 -379 381 -148 122 -394 279 -559 356 -450 212 -774 290
-1231 297 -124 2 -247 2 -275 0z m596 -283 c584 -77 1105 -349 1539 -807 152
-160 346 -430 449 -624 194 -368 306 -776 318 -1165 8 -268 -14 -447 -92 -749
-91 -347 -274 -703 -524 -1016 -395 -497 -980 -845 -1596 -951 -326 -56 -700
-50 -1020 16 -240 49 -366 89 -575 182 -174 78 -218 102 -380 209 -203 134
-366 277 -521 459 -218 255 -370 495 -486 770 -151 360 -219 739 -195 1098 29
427 112 740 291 1098 143 285 317 525 537 739 322 313 534 452 914 597 408
155 872 205 1341 144z"/>
<path d="M4895 7594 c-109 -14 -198 -31 -176 -33 10 -1 11 -4 2 -15 -10 -11
-19 -12 -42 -4 -22 8 -38 7 -56 -1 -13 -6 -29 -9 -34 -6 -5 4 -9 3 -9 -2 0 -4
-12 -8 -28 -9 -30 -1 -192 -51 -205 -64 -5 -4 -3 -11 4 -15 8 -6 10 -4 4 4 -5
9 0 12 19 9 15 -2 25 -7 24 -13 -2 -5 -11 -8 -20 -7 -10 2 -18 -2 -18 -8 0 -7
-7 -5 -16 4 -8 9 -19 16 -24 16 -17 0 -105 -45 -118 -60 -8 -8 -11 -10 -8 -3
8 16 -55 -16 -72 -36 -8 -9 -10 -10 -7 -3 6 11 3 11 -14 0 -22 -14 -28 -28
-11 -28 6 0 10 5 10 12 0 9 3 9 12 0 7 -7 20 -12 30 -12 11 0 18 -7 18 -20 0
-11 -4 -20 -10 -20 -5 0 -10 5 -10 11 0 5 -4 8 -9 5 -5 -4 -4 -24 2 -48 8 -31
7 -43 -1 -46 -7 -2 -12 -21 -12 -43 0 -39 0 -39 40 -39 33 0 40 -3 40 -20 0
-13 7 -20 20 -20 18 0 20 -7 20 -60 0 -53 2 -60 20 -60 13 0 20 -7 20 -20 0
-13 7 -20 20 -20 13 0 20 -7 20 -20 0 -13 7 -20 20 -20 13 0 20 -7 20 -20 0
-13 7 -20 20 -20 13 0 20 -7 20 -20 0 -13 7 -20 20 -20 17 0 20 -7 20 -40 0
-33 3 -40 20 -40 17 0 20 -7 20 -40 0 -31 -4 -40 -17 -40 -17 -1 -17 -1 0 -14
23 -18 22 -25 -3 -19 -27 7 -16 -24 11 -32 10 -4 19 -11 19 -16 0 -6 5 -7 12
-3 8 5 9 2 5 -9 -3 -10 -2 -17 3 -17 6 0 10 7 10 15 0 8 5 15 11 15 6 0 8 -8
4 -19 -3 -12 0 -21 10 -25 8 -3 15 -12 15 -20 0 -7 9 -16 21 -19 12 -3 18 -10
14 -17 -4 -6 5 -21 20 -34 22 -19 55 -68 55 -82 0 -2 -11 6 -25 18 -14 12 -25
25 -25 28 0 4 -21 28 -46 53 -25 25 -43 51 -39 57 4 6 2 9 -4 8 -6 -2 -47 33
-91 77 -55 55 -76 82 -67 88 8 5 6 7 -5 5 -24 -4 -161 144 -145 155 8 5 5 7
-8 5 -15 -2 -19 2 -17 17 2 14 0 16 -6 7 -7 -10 -28 7 -83 64 -41 42 -73 81
-71 86 1 5 -2 7 -7 4 -5 -3 -22 9 -38 27 -29 33 -237 226 -306 285 -55 46 -78
43 -126 -20 -141 -189 -183 -568 -90 -812 23 -61 22 -56 4 -56 -9 0 -15 9 -15
25 0 14 -5 25 -11 25 -13 0 -39 -25 -39 -37 0 -14 -124 -37 -128 -24 -6 19
-32 12 -32 -9 0 -13 -7 -20 -20 -21 -11 -1 -25 -2 -31 -3 -6 0 -17 -14 -24
-31 -7 -16 -14 -24 -14 -17 -2 24 -31 12 -31 -13 0 -16 -4 -23 -13 -19 -22 8
-101 -190 -90 -223 3 -7 -19 -13 -64 -18 -122 -11 -134 -24 -163 -173 -34
-179 -44 -336 -31 -480 34 -367 158 -629 428 -903 51 -52 91 -98 87 -102 -4
-4 -1 -7 7 -7 8 0 46 -23 84 -50 39 -28 91 -60 116 -72 45 -21 45 -22 27 -40
-19 -19 -21 -19 -39 -2 -22 20 -33 15 -23 -10 4 -9 13 -15 20 -12 8 3 14 1 14
-5 0 -6 5 -7 11 -3 8 4 8 1 0 -12 -18 -32 -60 -80 -61 -68 0 6 7 17 16 24 8 8
20 23 26 34 8 16 5 15 -17 -6 -15 -16 -39 -28 -54 -29 -14 -1 -43 -2 -65 -3
-34 -3 -40 0 -51 28 -8 17 -23 37 -34 44 -12 7 -21 19 -21 27 0 8 -6 15 -14
15 -12 0 -12 -5 1 -31 8 -17 21 -33 28 -36 8 -2 11 -11 8 -19 -3 -7 2 -17 11
-20 9 -3 13 -10 10 -15 -3 -5 -2 -9 3 -9 4 0 14 -14 22 -30 7 -17 28 -47 47
-67 32 -33 33 -38 24 -72 -23 -84 -2 -216 47 -300 100 -171 253 -228 447 -167
102 32 102 32 110 3 3 -12 18 -30 35 -40 36 -21 47 -22 31 -2 -7 8 -16 13 -20
10 -5 -3 -12 0 -16 6 -23 38 -11 56 178 249 117 120 158 159 107 100 -46 -52
-87 -96 -91 -98 -4 -2 -8 -8 -8 -14 0 -6 -20 -33 -45 -59 -33 -35 -45 -56 -45
-78 0 -38 19 -81 37 -81 19 0 17 -66 -3 -74 -13 -5 -13 -8 -2 -19 7 -7 22 -17
33 -21 15 -5 17 -4 8 5 -12 12 -7 39 8 39 5 0 9 -8 9 -17 0 -15 2 -16 10 -3 6
10 10 11 10 3 0 -7 7 -13 15 -13 18 0 20 -16 3 -23 -8 -3 -7 -6 4 -6 9 -1 20
-5 23 -11 3 -6 -1 -7 -12 -4 -16 5 -16 4 1 -6 14 -10 20 -10 26 0 6 10 15 10
44 0 38 -12 48 -29 19 -31 -10 0 -4 -5 12 -10 19 -5 31 -5 33 1 2 6 13 10 25
9 12 0 16 -3 10 -6 -28 -11 -10 -21 50 -27 34 -4 77 -7 95 -6 36 0 85 -21 118
-51 57 -52 572 -71 804 -29 30 6 71 12 90 15 66 10 109 26 122 43 7 9 22 19
32 20 18 3 18 2 5 -14 -13 -16 -12 -17 4 -11 10 4 23 7 28 7 6 0 7 5 4 10 -4
7 2 9 19 4 17 -4 26 -2 26 6 0 7 6 10 13 7 7 -3 29 2 48 10 18 8 36 14 39 14
3 1 10 4 15 8 6 5 23 11 38 15 15 4 25 11 22 16 -3 5 0 7 7 5 15 -6 227 86
271 117 15 11 25 24 22 29 -9 13 12 11 69 -6 70 -21 181 -19 259 5 179 55 300
303 243 493 -8 26 -10 47 -5 47 5 0 12 0 17 1 16 1 40 32 57 74 10 24 22 42
27 39 4 -3 7 5 5 18 -1 14 3 22 11 21 6 -2 12 4 12 12 0 8 4 15 9 15 5 0 14
12 20 28 18 42 37 72 43 66 5 -4 20 36 22 61 1 6 10 9 20 7 11 -2 15 1 11 7
-3 6 -1 11 4 11 11 0 48 79 43 93 -1 4 2 7 7 7 13 0 8 33 -7 48 -9 10 -16 11
-26 3 -7 -6 -16 -8 -19 -4 -4 3 -7 1 -7 -4 0 -6 5 -13 12 -15 6 -2 -8 -14 -33
-26 -24 -12 -36 -22 -27 -22 11 0 15 -5 12 -15 -4 -8 -13 -15 -20 -15 -8 0
-17 -7 -20 -15 -4 -8 -10 -13 -14 -10 -5 3 -11 1 -15 -5 -3 -5 -12 -10 -20
-10 -15 0 -75 -56 -75 -71 0 -5 -8 -9 -18 -9 -10 0 -28 -10 -39 -22 -20 -21
-20 -26 -8 -61 14 -40 7 -87 -17 -120 -12 -15 -20 -9 -77 54 -35 38 -62 71
-60 73 2 1 38 19 80 39 173 84 466 388 544 565 59 134 103 265 125 369 39 186
37 492 -5 696 -21 99 -34 127 -64 139 -47 18 -384 22 -496 5 -54 -9 -104 -13
-110 -10 -5 4 -6 2 -2 -3 4 -4 -20 -16 -55 -26 -75 -21 -95 -22 -101 -5 -2 7
-4 7 -3 -2 1 -9 -57 -44 -154 -92 -85 -43 -184 -97 -220 -120 -175 -113 -341
-329 -436 -566 -16 -40 -32 -73 -36 -73 -3 0 -16 15 -28 34 -11 19 -45 57 -75
85 -30 27 -55 56 -55 63 0 8 16 29 35 48 19 19 74 92 122 162 47 70 88 126 90
124 5 -5 -19 -56 -27 -56 -4 0 -19 -25 -34 -55 -15 -31 -31 -53 -36 -50 -6 4
-10 -5 -10 -19 0 -13 -7 -31 -15 -40 -9 -9 -11 -17 -5 -21 5 -3 10 -2 10 4 0
6 7 8 15 5 9 -4 19 3 26 19 8 19 22 27 50 32 38 7 52 27 27 39 -10 5 -10 7 0
12 6 3 12 21 12 41 0 26 5 36 20 40 11 3 20 11 20 18 0 7 6 16 13 18 9 4 9 8
-2 15 -11 8 0 15 45 27 107 31 185 74 298 162 157 124 399 368 611 617 61 71
133 153 161 181 28 29 54 64 58 80 17 68 -44 145 -116 145 -46 0 -58 -10 -208
-184 -226 -260 -277 -315 -470 -512 -114 -117 -227 -223 -251 -237 -24 -14
-84 -37 -132 -51 -48 -14 -109 -35 -134 -48 -99 -49 -190 -156 -308 -363 -151
-263 -410 -560 -1280 -1465 -298 -310 -318 -325 -422 -325 -98 0 -154 53 -161
153 -8 107 11 134 257 370 119 114 311 293 425 397 115 105 288 267 385 361
97 94 205 197 241 229 117 104 595 589 641 650 80 105 83 112 89 286 6 143 8
160 34 212 30 62 86 116 159 153 28 15 97 74 170 147 122 123 368 357 482 457
77 69 95 96 95 146 0 47 -25 86 -70 109 -56 29 -80 20 -145 -50 -34 -36 -66
-65 -73 -65 -6 0 -23 -12 -38 -27 -15 -16 -21 -19 -13 -9 13 18 13 19 -8 7
-15 -7 -20 -17 -16 -28 4 -10 2 -14 -4 -10 -6 4 -18 -4 -27 -18 -9 -14 -26
-25 -37 -25 -11 0 -18 -4 -15 -8 2 -4 -3 -17 -12 -28 -34 -42 -198 -184 -241
-208 -9 -5 -21 -17 -28 -25 -6 -9 -20 -16 -30 -16 -10 0 -17 -6 -15 -13 1 -8
-2 -11 -7 -8 -5 3 -24 -1 -42 -10 l-34 -15 35 5 c33 5 34 5 16 -9 -11 -8 -26
-15 -34 -15 -7 0 -10 -5 -7 -10 4 -6 -7 -16 -24 -23 -17 -7 -28 -16 -24 -20 3
-4 1 -7 -6 -7 -7 0 -19 -7 -27 -15 -9 -8 -12 -15 -8 -15 3 0 -27 -35 -67 -77
-148 -156 -203 -326 -176 -540 l8 -63 -80 -83 c-44 -45 -94 -100 -111 -122
-18 -22 -35 -40 -38 -40 -7 0 -118 114 -168 173 -16 19 -63 69 -104 111 -141
145 -162 172 -130 164 11 -3 17 -9 14 -14 -3 -5 -1 -9 5 -9 6 0 17 -13 25 -29
17 -31 56 -49 56 -25 0 8 9 14 20 14 11 0 20 -4 20 -9 0 -5 9 -11 20 -14 14
-3 20 -14 20 -32 0 -26 2 -27 40 -23 28 2 40 0 40 -9 0 -8 14 -13 40 -13 33 0
40 -3 40 -20 0 -17 7 -20 40 -20 33 0 40 3 40 20 0 11 5 20 10 20 6 0 10 15
10 34 0 19 5 38 10 41 6 3 10 39 10 80 0 41 5 77 10 80 6 3 10 15 10 26 0 10
5 19 10 19 6 0 10 9 10 20 0 11 5 20 10 20 6 0 10 9 10 19 0 11 5 21 12 23 7
3 10 27 9 66 -1 37 3 62 9 62 6 0 10 29 10 71 0 54 5 77 19 98 10 14 21 37 22
51 3 18 11 26 29 28 33 5 50 20 50 43 0 11 4 19 9 19 5 0 11 9 14 20 3 11 12
20 21 20 9 0 16 5 16 10 0 6 9 10 20 10 16 0 20 7 20 30 0 23 4 30 20 30 13 0
20 7 20 20 0 13 7 20 20 20 13 0 20 7 20 20 0 13 7 20 19 20 10 0 21 9 24 20
4 15 14 20 41 20 20 0 36 5 36 10 0 6 18 10 40 10 22 0 40 5 40 10 0 6 9 10
20 10 11 0 20 5 20 10 0 6 8 10 18 10 10 0 24 9 32 20 8 11 22 20 32 20 13 0
18 8 18 30 0 17 5 30 10 30 6 0 10 18 10 41 0 35 2 40 19 34 11 -3 26 1 37 12
16 17 16 18 1 21 -9 2 -17 8 -17 13 0 5 -9 9 -20 9 -11 0 -20 7 -20 15 0 8 -8
15 -18 15 -10 0 -28 8 -41 17 -14 9 -22 12 -18 7 3 -6 -20 2 -51 17 -35 17
-59 24 -63 18 -4 -7 -9 -4 -12 5 -4 9 -10 16 -14 15 -4 -1 -10 -1 -13 1 -3 1
-23 4 -45 6 -21 3 -44 9 -51 14 -6 6 -35 15 -65 20 -57 12 -67 13 -169 30
-106 17 -432 20 -545 4z m-400 -104 c-3 -5 -14 -10 -23 -9 -14 0 -13 2 3 9 27
11 27 11 20 0z m-172 -83 c-27 -15 -27 -15 -13 -32 7 -8 9 -15 4 -15 -16 0
-31 15 -36 35 -4 17 0 20 29 21 28 0 31 -1 16 -9z m783 -242 c4 -8 16 -15 29
-15 29 0 101 -52 126 -93 31 -50 24 -148 -15 -204 -17 -24 -38 -43 -47 -43
-10 0 -21 -5 -24 -11 -11 -17 -86 1 -131 32 -67 46 -99 138 -70 203 8 17 15
38 15 46 0 8 3 26 5 40 2 14 5 28 5 32 1 9 51 26 79 27 12 1 25 -6 28 -14z
m119 -38 l20 -19 -20 10 c-11 6 -29 18 -40 26 l-20 16 20 -7 c11 -4 29 -16 40
-26z m-1421 -207 c61 -63 236 -243 391 -400 259 -262 535 -552 535 -561 0 -2
-62 -1 -137 2 -244 11 -405 63 -567 183 -170 125 -293 280 -343 430 -24 73
-27 95 -27 236 -1 164 7 233 27 228 7 -2 61 -55 121 -118z m-276 -555 l32 -60
-30 35 c-16 19 -30 39 -30 43 0 5 -6 5 -12 1 -10 -5 -10 -4 -1 6 6 7 9 20 6
29 -10 28 3 8 35 -54z m1203 -67 c11 -21 11 -22 -4 -9 -10 7 -17 17 -17 22 0
15 9 10 21 -13z m-1101 -92 c0 -5 -16 12 -35 37 -46 60 -46 73 0 16 19 -24 35
-48 35 -53z m-519 39 c7 18 8 17 8 -7 1 -30 -9 -40 -28 -29 -9 6 -11 16 -5 32
7 22 8 23 12 4 l5 -20 8 20z m-34 -77 c-3 -7 -5 -2 -5 12 0 14 2 19 5 13 2 -7
2 -19 0 -25z m630 -69 c-1 -22 -27 -12 -27 11 0 9 -9 27 -20 40 -11 13 -20 28
-20 34 0 6 16 -7 34 -29 19 -22 34 -47 33 -56z m-507 10 c58 -1 125 2 150 6
30 4 40 3 31 -3 -10 -7 2 -13 45 -23 32 -7 64 -16 69 -20 10 -8 100 -24 184
-33 30 -3 40 -1 30 5 -7 5 -9 9 -3 9 6 0 15 9 20 21 9 19 13 17 73 -31 35 -28
93 -70 130 -93 117 -75 374 -187 430 -187 11 0 23 -4 26 -10 4 -6 -9 -10 -32
-10 -54 0 -70 -13 -38 -30 14 -8 24 -18 22 -24 -3 -6 1 -22 8 -36 7 -14 19
-40 25 -57 7 -18 16 -33 20 -33 4 0 10 -13 14 -30 4 -22 11 -30 26 -30 25 0
50 -22 50 -44 0 -11 9 -16 31 -16 17 0 28 4 24 10 -3 5 -1 18 4 28 7 14 6 26
-5 43 -9 13 -1 6 18 -16 18 -22 51 -60 73 -85 82 -92 78 -84 52 -111 -12 -13
-47 -46 -78 -74 -30 -27 -62 -61 -71 -74 l-17 -24 -9 24 c-6 13 -18 51 -28 83
-11 33 -42 102 -70 153 -49 89 -55 108 -24 81 8 -7 6 -3 -4 9 -10 13 -22 20
-27 18 -4 -3 -33 28 -63 69 -79 104 -219 234 -296 275 -36 19 -90 52 -120 73
-70 49 -129 71 -320 120 -145 38 -166 41 -332 45 -160 5 -203 12 -165 26 6 3
19 4 27 2 8 -2 62 -5 120 -6z m280 -262 c177 -47 311 -114 465 -233 132 -103
219 -203 280 -323 30 -60 105 -275 105 -301 0 -6 -41 -53 -91 -103 l-91 -93
-107 106 c-59 58 -174 175 -256 260 -333 347 -418 430 -439 430 -49 0 -126
-77 -126 -127 0 -9 55 -74 123 -143 67 -69 172 -181 234 -250 61 -69 179 -191
261 -272 82 -81 146 -148 141 -150 -4 -2 -62 -56 -129 -121 -112 -109 -122
-117 -143 -105 -19 11 -20 13 -4 16 24 5 21 17 -7 30 -18 8 -26 8 -28 0 -9
-27 -154 47 -243 124 -162 139 -239 235 -318 393 -85 172 -117 311 -117 514 0
178 13 253 51 305 16 22 29 45 29 52 0 21 22 24 170 20 112 -4 166 -10 240
-29z m3744 -29 c28 -100 40 -286 27 -420 -28 -276 -99 -440 -296 -681 -65 -79
-196 -185 -288 -232 -40 -21 -85 -47 -101 -58 -27 -19 -29 -19 -42 -3 -7 10
-10 25 -7 34 3 12 2 14 -4 4 -7 -10 -13 -8 -27 7 -10 11 -15 25 -11 31 5 8 1
11 -11 8 -22 -5 -89 56 -79 72 3 5 0 8 -7 6 -7 -2 -31 16 -53 41 l-40 46 61
56 c33 31 82 81 109 111 127 146 413 445 469 490 83 68 110 104 101 138 -8 33
-98 122 -122 122 -10 0 -111 -96 -227 -218 -115 -119 -286 -295 -380 -390
l-171 -173 -22 27 c-12 15 -20 31 -17 36 3 4 1 8 -5 8 -6 0 -40 28 -76 63
l-66 62 27 79 c20 60 29 75 36 62 14 -24 26 -19 20 9 -2 14 -8 25 -13 25 -39
0 41 153 140 266 98 113 225 210 356 274 217 105 380 145 607 148 l97 2 15
-52z m-2258 -114 c35 -25 64 -48 64 -51 0 -3 -39 -42 -87 -88 l-88 -82 -40 45
c-53 60 -165 205 -165 215 0 4 57 7 126 7 l125 0 65 -46z m1654 -1706 c29 -54
32 -66 28 -129 -3 -62 -7 -72 -38 -104 -43 -45 -87 -59 -166 -52 -80 6 -96 18
-232 170 -60 67 -168 185 -241 262 -72 77 -191 205 -264 285 -72 80 -179 195
-237 255 -131 138 -190 204 -190 214 0 4 50 60 110 124 l111 116 543 -541
c447 -444 550 -551 576 -600z m-1480 712 c0 -4 -6 -10 -14 -13 -10 -4 -12 0
-9 14 5 18 23 18 23 -1z m-151 -147 c-8 -10 -25 -29 -38 -43 -27 -27 -10 0 23
38 23 26 35 30 15 5z m-69 -77 c0 -2 -8 -10 -17 -17 -16 -13 -17 -12 -4 4 13
16 21 21 21 13z m-221 -233 c-146 -152 -171 -177 -163 -163 9 18 205 220 213
220 3 0 -20 -26 -50 -57z m-1269 -152 c-15 -30 -30 -35 -17 -6 7 14 16 25 20
25 4 0 3 -9 -3 -19z m1728 -34 c24 0 32 -5 30 -16 -3 -15 31 -51 47 -51 51 0
58 -192 8 -223 -8 -5 -11 -13 -7 -18 3 -6 -2 -17 -12 -25 -11 -9 -12 -12 -4
-8 11 5 10 2 -3 -13 -25 -28 -58 -26 -137 11 -30 13 -88 73 -100 101 -10 27 5
121 25 151 9 14 13 30 9 36 -4 6 -3 9 2 6 5 -3 15 0 22 8 7 8 10 14 6 14 -4 0
1 9 12 21 14 15 25 19 44 14 14 -4 40 -8 58 -8z m-638 0 c0 -2 -12 -14 -27
-28 l-28 -24 24 28 c23 25 31 32 31 24z m-60 -61 c0 -2 -8 -10 -17 -17 -16
-13 -17 -12 -4 4 13 16 21 21 21 13z m-40 -40 c0 -2 -8 -10 -17 -17 -16 -13
-17 -12 -4 4 13 16 21 21 21 13z m1674 -302 c3 -8 2 -12 -4 -9 -6 3 -10 10
-10 16 0 14 7 11 14 -7z m66 -59 c19 -19 31 -35 27 -35 -8 0 -67 57 -67 65 0
10 6 5 40 -30z m-1960 -145 c0 -11 -4 -20 -10 -20 -5 0 -10 9 -10 20 0 11 5
20 10 20 6 0 10 -9 10 -20z m1690 -147 c-8 -3 -23 -10 -32 -15 -11 -5 -18 -5
-18 1 0 10 23 18 50 19 13 0 13 0 0 -5z m-1170 -83 c0 -5 -5 -10 -11 -10 -5 0
-7 5 -4 10 3 6 8 10 11 10 2 0 4 -4 4 -10z m444 -38 c5 -9 -41 -8 -51 1 -3 4
5 7 20 7 14 0 28 -4 31 -8z m63 2 c-3 -3 -12 -4 -19 -1 -8 3 -5 6 6 6 11 1 17
-2 13 -5z"/>
<path d="M5062 7154 c4 -3 -3 -15 -15 -26 -22 -19 -22 -19 8 -2 17 10 31 19
33 20 2 1 -5 5 -15 8 -9 4 -14 4 -11 0z"/>
<path d="M4428 5380 c3 -8 11 -24 19 -35 11 -16 13 -17 13 -3 0 9 -6 18 -12
21 -10 3 -10 7 -1 18 10 12 8 15 -6 15 -13 0 -17 -5 -13 -16z"/>
<path d="M6442 4644 c10 -10 20 -16 22 -13 3 3 -5 11 -17 18 -21 13 -21 12 -5
-5z"/>
<path d="M6498 4599 c30 -20 105 -29 120 -15 3 3 -17 6 -44 6 -29 0 -59 6 -70
15 -10 8 -23 14 -29 15 -5 0 5 -10 23 -21z"/>
<path d="M4025 7301 c-3 -5 -2 -12 3 -15 5 -3 9 1 9 9 0 17 -3 19 -12 6z"/>
<path d="M3960 7259 c-14 -11 -18 -18 -10 -17 16 3 44 27 39 33 -3 2 -15 -5
-29 -16z"/>
<path d="M6655 7121 c-16 -10 -55 -47 -85 -82 -30 -35 -138 -149 -241 -254
-209 -212 -316 -334 -325 -371 -10 -38 5 -92 29 -109 34 -24 100 -19 135 10
28 23 196 193 318 321 27 28 96 93 154 145 158 143 179 170 180 235 0 49 -28
90 -76 110 -43 18 -53 18 -89 -5z"/>
<path d="M4060 6990 c0 -5 5 -10 11 -10 5 0 7 5 4 10 -3 6 -8 10 -11 10 -2 0
-4 -4 -4 -10z"/>
<path d="M3385 6726 c-6 -8 -35 -43 -65 -78 -30 -35 -45 -55 -34 -45 11 9 24
14 27 10 4 -3 7 -1 7 6 0 6 17 30 38 52 20 23 41 47 45 55 10 18 -5 18 -18 0z"/>
<path d="M4412 6628 c2 -5 8 -9 13 -9 5 0 11 4 13 9 1 5 -4 9 -13 9 -9 0 -14
-4 -13 -9z"/>
<path d="M6950 6567 c-13 -23 -22 -42 -20 -42 2 0 -2 -10 -9 -22 -10 -19 -9
-23 3 -23 8 0 16 8 19 18 3 13 6 11 17 -11 9 -18 19 -26 28 -22 21 8 41 -12
48 -51 3 -19 10 -34 15 -34 5 0 9 -6 9 -13 0 -12 34 -47 45 -47 3 0 -1 13 -10
30 -13 26 -14 29 0 24 8 -4 15 -11 15 -17 0 -6 3 -7 6 -4 4 4 2 12 -4 19 -9
12 -45 76 -99 180 -14 26 -28 50 -32 53 -4 2 -18 -15 -31 -38z"/>
<path d="M6871 6454 c0 -11 3 -14 6 -6 3 7 2 16 -1 19 -3 4 -6 -2 -5 -13z"/>
<path d="M3170 6449 c0 -5 5 -7 10 -4 6 3 10 8 10 11 0 2 -4 4 -10 4 -5 0 -10
-5 -10 -11z"/>
<path d="M3136 6385 c-3 -8 -1 -15 4 -15 6 0 10 7 10 15 0 8 -2 15 -4 15 -2 0
-6 -7 -10 -15z"/>
<path d="M6858 6343 c7 -3 16 -2 19 1 4 3 -2 6 -13 5 -11 0 -14 -3 -6 -6z"/>
<path d="M7126 6321 c-3 -5 1 -11 9 -14 9 -4 12 -1 8 9 -6 16 -10 17 -17 5z"/>
<path d="M7190 6214 c0 -6 7 -19 16 -30 14 -18 14 -18 3 6 -14 31 -19 36 -19
24z"/>
<path d="M4917 6133 c-4 -3 -7 -13 -7 -21 0 -12 3 -12 15 -2 8 7 15 16 15 21
0 11 -14 12 -23 2z"/>
<path d="M6900 6100 c0 -13 11 -13 30 0 12 8 11 10 -7 10 -13 0 -23 -4 -23
-10z"/>
<path d="M6480 6050 c0 -5 5 -10 11 -10 5 0 7 5 4 10 -3 6 -8 10 -11 10 -2 0
-4 -4 -4 -10z"/>
<path d="M5805 5340 c-3 -5 -1 -10 4 -10 6 0 11 5 11 10 0 6 -2 10 -4 10 -3 0
-8 -4 -11 -10z"/>
<path d="M3039 4582 c17 -41 66 -139 140 -277 16 -30 16 -30 19 49 2 53 -1 82
-9 87 -7 4 -9 14 -6 23 8 21 -42 44 -54 25 -4 -6 -12 -8 -19 -4 -9 6 -9 9 0
15 9 6 6 10 -9 15 -19 6 -25 17 -22 38 0 4 -3 7 -9 7 -5 0 -10 9 -10 20 0 11
-4 20 -10 20 -5 0 -10 7 -10 15 0 8 -4 15 -10 15 -5 0 -1 -22 9 -48z"/>
<path d="M4290 3336 c0 -2 7 -7 16 -10 8 -3 12 -2 9 4 -6 10 -25 14 -25 6z"/>
</g>
</svg>
